<?xml version="1.0" encoding="utf-8"?>
<svg xmlns="http://www.w3.org/2000/svg" xmlns:xlink="http://www.w3.org/1999/xlink" style="margin: auto; background: none; display: block; shape-rendering: auto;" width="204px" height="204px" viewBox="0 0 100 100" preserveAspectRatio="xMidYMid">
<g transform="translate(50 50)">
<g>
<animateTransform attributeName="transform" type="rotate" values="0;45" keyTimes="0;1" dur="0.46511627906976744s" repeatCount="indefinite"></animateTransform><path d="M11.618950038622252 -3 L17.618950038622252 -3 L17.618950038622252 3 L11.618950038622252 3 A12 12 0 0 1 10.337158706137135 6.094518019017849 L10.337158706137135 6.094518019017849 L14.579799393256419 10.337158706137135 L10.337158706137135 14.579799393256419 L6.094518019017851 10.337158706137135 A12 12 0 0 1 3 11.618950038622252 L3 11.618950038622252 L3.0000000000000004 17.618950038622252 L-2.9999999999999982 17.618950038622252 L-2.9999999999999987 11.618950038622252 A12 12 0 0 1 -6.094518019017847 10.337158706137135 L-6.094518019017847 10.337158706137135 L-10.337158706137132 14.57979939325642 L-14.57979939325642 10.337158706137133 L-10.337158706137135 6.094518019017848 A12 12 0 0 1 -11.61895003862225 3.0000000000000036 L-11.61895003862225 3.0000000000000036 L-17.618950038622252 3.0000000000000044 L-17.618950038622252 -3 L-11.618950038622252 -3.000000000000001 A12 12 0 0 1 -10.337158706137137 -6.094518019017846 L-10.337158706137137 -6.094518019017846 L-14.579799393256422 -10.33715870613713 L-10.337158706137135 -14.579799393256419 L-6.094518019017849 -10.337158706137135 A12 12 0 0 1 -3.000000000000004 -11.61895003862225 L-3.000000000000004 -11.61895003862225 L-3.0000000000000053 -17.618950038622252 L2.9999999999999982 -17.618950038622252 L2.9999999999999996 -11.618950038622252 A12 12 0 0 1 6.094518019017846 -10.337158706137137 L6.094518019017846 -10.337158706137137 L10.33715870613713 -14.579799393256422 L14.579799393256419 -10.337158706137135 L10.337158706137135 -6.094518019017849 A12 12 0 0 1 11.61895003862225 -3.0000000000000044 M0 -6A6 6 0 1 0 0 6 A6 6 0 1 0 0 -6" fill="#4cd137"></path></g></g>
</svg>